<svg width="589" height="169" viewBox="0 0 589 169" fill="none" xmlns="http://www.w3.org/2000/svg">
<rect x="299" width="290" height="169" fill="#5176FF"/>
<rect width="299" height="169" fill="#FE9B1A"/>
<path d="M41.208 41.584V78.32C41.208 79.6853 41.5067 80.6667 42.104 81.264C42.7867 81.8613 44.2373 82.16 46.456 82.16H55.928V94.32H39.672C34.808 94.32 30.8827 93.808 27.896 92.784C24.9947 91.76 22.8187 89.968 21.368 87.408C20.0027 84.7627 19.1067 81.9467 18.68 78.96C18.3387 75.9733 18.168 71.9627 18.168 66.928C18.168 61.808 18.3387 57.9253 18.68 55.28C19.1067 52.6347 20.0027 50.16 21.368 47.856C22.8187 45.552 24.9947 43.9307 27.896 42.992C30.8827 42.0533 34.808 41.584 39.672 41.584H41.208ZM61.048 82.16H62.584C66.2533 82.16 69.0693 82.2453 71.032 82.416C73.08 82.5013 75.0427 82.8853 76.92 83.568C78.7973 84.1653 80.0773 84.8907 80.76 85.744C81.528 86.5973 82.2107 88.0907 82.808 90.224C83.4907 92.272 83.8747 94.4907 83.96 96.88C84.0453 99.2693 84.088 102.683 84.088 107.12C84.088 111.557 84.0453 115.099 83.96 117.744C83.8747 120.304 83.4907 122.779 82.808 125.168C82.2107 127.472 81.528 129.093 80.76 130.032C80.0773 130.971 78.7973 131.824 76.92 132.592C75.0427 133.275 73.08 133.701 71.032 133.872C69.0693 133.957 66.2533 134 62.584 134H61.048V82.16ZM19.96 105.456H36.088C37.2827 105.456 38.008 105.627 38.264 105.968C38.52 106.309 38.648 107.035 38.648 108.144V118.128C38.648 119.493 38.8187 120.475 39.16 121.072C39.5867 121.584 40.568 121.84 42.104 121.84H55.928V134H37.112C30.8827 134 26.1467 132.933 22.904 130.8C19.7467 128.667 18.168 124.955 18.168 119.664V108.144C18.168 106.352 18.7653 105.456 19.96 105.456ZM46.328 41.456H62.584C68.8133 41.456 73.5067 42.5227 76.664 44.656C79.9067 46.7893 81.528 50.5013 81.528 55.792V67.312C81.528 69.104 80.9307 70 79.736 70H63.608C62.4133 70 61.688 69.8293 61.432 69.488C61.176 69.1467 61.048 68.4213 61.048 67.312V57.328C61.048 55.9627 60.8347 55.024 60.408 54.512C60.0667 53.9147 59.128 53.616 57.592 53.616H46.328V41.456ZM130.811 132.976C130.811 133.488 130.555 133.829 130.043 134H120.315C114.086 134 109.563 132.763 106.747 130.288C103.931 127.813 102.523 123.461 102.523 117.232V79.856H95.995C93.8617 79.856 92.795 78.576 92.795 76.016V70H102.523V41.456H110.331C114.086 41.456 116.902 42.3947 118.779 44.272C120.742 46.1493 121.723 48.5387 121.723 51.44V119.536C121.723 122.693 123.515 124.272 127.099 124.272H129.787C130.47 124.272 130.811 124.571 130.811 125.168V132.976ZM134.779 70V76.016C134.779 78.576 133.712 79.856 131.579 79.856H124.923V70H134.779ZM174.278 79.6H167.366C164.721 79.6 163.227 80.0693 162.886 81.008C162.374 82.1173 162.118 83.696 162.118 85.744V118.256C162.118 118.427 162.118 118.939 162.118 119.792C162.118 120.645 162.203 121.371 162.374 121.968C162.715 123.589 164.379 124.4 167.366 124.4H174.278V134H161.862C158.619 134 155.974 133.872 153.926 133.616C151.878 133.275 150.086 132.592 148.55 131.568C147.014 130.544 145.862 129.435 145.094 128.24C144.326 126.96 143.686 124.955 143.174 122.224C142.577 118.384 142.278 113.008 142.278 106.096C142.278 99.184 142.321 94.5333 142.406 92.144C142.491 89.6693 142.619 87.0667 142.79 84.336C143.046 81.6053 143.43 79.6 143.942 78.32C144.539 77.04 145.265 75.76 146.118 74.48C147.057 73.1147 148.251 72.176 149.702 71.664C152.859 70.5547 156.913 70 161.862 70H174.278V79.6ZM203.078 133.104C203.078 133.701 202.907 134 202.566 134H192.07C187.291 134 183.75 132.891 181.446 130.672C179.227 128.453 178.118 124.827 178.118 119.792V70H183.366C188.742 70 192.411 71.28 194.374 73.84C196.337 76.3147 197.318 79.6 197.318 83.696V119.536C197.318 122.181 197.873 123.675 198.982 124.016C199.579 124.272 200.39 124.4 201.414 124.4H202.054C202.737 124.4 203.078 124.699 203.078 125.296V133.104ZM235.318 41.456H247.606C248.118 41.5413 248.374 41.8827 248.374 42.48V50.288C248.374 50.8853 248.033 51.184 247.35 51.184H242.102C238.518 51.184 236.726 52.7627 236.726 55.92V134H228.918C225.163 134 222.305 133.061 220.342 131.184C218.465 129.307 217.526 126.917 217.526 124.016V79.856H210.998C208.865 79.856 207.798 78.576 207.798 76.016V70H217.526V58.224C217.526 51.9947 218.934 47.6427 221.75 45.168C224.566 42.6933 229.089 41.456 235.318 41.456ZM248.502 70V76.016C248.502 78.576 247.435 79.856 245.302 79.856H239.542V70H248.502ZM279.693 41.456H291.981C292.493 41.5413 292.749 41.8827 292.749 42.48V50.288C292.749 50.8853 292.408 51.184 291.725 51.184H286.477C282.893 51.184 281.101 52.7627 281.101 55.92V134H273.293C269.538 134 266.68 133.061 264.717 131.184C262.84 129.307 261.901 126.917 261.901 124.016V79.856H255.373C253.24 79.856 252.173 78.576 252.173 76.016V70H261.901V58.224C261.901 51.9947 263.309 47.6427 266.125 45.168C268.941 42.6933 273.464 41.456 279.693 41.456ZM292.877 70V76.016C292.877 78.576 291.81 79.856 289.677 79.856H283.917V70H292.877ZM297.7 41.456H337.764C339.129 41.456 340.239 41.9253 341.092 42.864C341.945 43.8027 342.372 45.04 342.372 46.576V134H328.932C326.031 134 324.111 133.531 323.172 132.592C322.319 131.653 321.892 129.691 321.892 126.704V57.456H301.412C298.937 57.456 297.7 55.408 297.7 51.312V41.456ZM347.492 41.456H367.972C370.447 41.456 371.684 43.504 371.684 47.6V57.456H347.492V41.456ZM395.153 79.6H388.241C385.596 79.6 384.102 80.0693 383.761 81.008C383.249 82.1173 382.993 83.696 382.993 85.744V118.256C382.993 118.427 382.993 118.939 382.993 119.792C382.993 120.645 383.078 121.371 383.249 121.968C383.59 123.589 385.254 124.4 388.241 124.4H395.153V134H382.737C379.494 134 376.849 133.872 374.801 133.616C372.753 133.275 370.961 132.592 369.425 131.568C367.889 130.544 366.737 129.435 365.969 128.24C365.201 126.96 364.561 124.955 364.049 122.224C363.452 118.384 363.153 113.008 363.153 106.096C363.153 99.184 363.196 94.5333 363.281 92.144C363.366 89.6693 363.494 87.0667 363.665 84.336C363.921 81.6053 364.305 79.6 364.817 78.32C365.414 77.04 366.14 75.76 366.993 74.48C367.932 73.1147 369.126 72.176 370.577 71.664C373.734 70.5547 377.788 70 382.737 70H395.153V79.6ZM423.953 133.104C423.953 133.701 423.782 134 423.441 134H412.945C408.166 134 404.625 132.891 402.321 130.672C400.102 128.453 398.993 124.827 398.993 119.792V70H404.241C409.617 70 413.286 71.28 415.249 73.84C417.212 76.3147 418.193 79.6 418.193 83.696V119.536C418.193 122.181 418.748 123.675 419.857 124.016C420.454 124.272 421.265 124.4 422.289 124.4H422.929C423.612 124.4 423.953 124.699 423.953 125.296V133.104ZM461.313 133.104C461.313 133.701 461.1 134 460.673 134H447.745C442.966 134 439.425 132.891 437.121 130.672C434.902 128.453 433.793 124.827 433.793 119.792V41.584H441.601C445.356 41.584 448.172 42.5227 450.049 44.4C452.012 46.192 452.993 48.5387 452.993 51.44V119.536C452.993 122.181 453.548 123.675 454.657 124.016C455.254 124.272 456.065 124.4 457.089 124.4H460.289C460.972 124.4 461.313 124.699 461.313 125.296V133.104ZM497.438 133.104C497.438 133.701 497.225 134 496.798 134H483.87C479.091 134 475.55 132.891 473.246 130.672C471.027 128.453 469.918 124.827 469.918 119.792V41.584H477.726C481.481 41.584 484.297 42.5227 486.174 44.4C488.137 46.192 489.118 48.5387 489.118 51.44V119.536C489.118 122.181 489.673 123.675 490.782 124.016C491.379 124.272 492.19 124.4 493.214 124.4H496.414C497.097 124.4 497.438 124.699 497.438 125.296V133.104ZM506.043 70H520.635C522 70 523.11 70.4693 523.963 71.408C524.816 72.3467 525.243 73.584 525.243 75.12V120.56C525.243 121.925 525.542 122.907 526.139 123.504C526.822 124.101 528.272 124.4 530.491 124.4H537.403V134H519.995C510.694 134 506.043 129.435 506.043 120.304V70ZM526.523 142.192V148.976C526.523 150.427 526.736 151.408 527.163 151.92C527.59 152.517 528.699 152.816 530.491 152.816H537.403V162.416H521.275C511.974 162.416 507.323 157.851 507.323 148.72V144.88C507.323 143.6 507.451 142.875 507.707 142.704C508.048 142.533 508.262 142.405 508.347 142.32C508.432 142.32 508.646 142.277 508.987 142.192C509.414 142.192 509.712 142.192 509.883 142.192C515.43 142.192 520.976 142.192 526.523 142.192ZM541.243 70H549.051C552.806 70 555.622 70.9387 557.499 72.816C559.462 74.608 560.443 76.9547 560.443 79.856V152.688C560.443 155.589 559.462 157.936 557.499 159.728C555.622 161.605 552.806 162.544 549.051 162.544H541.243V70Z" fill="white"/>
</svg>
